<svg width="401" height="95" viewBox="0 0 401 95" fill="none" xmlns="http://www.w3.org/2000/svg">
<mask id="mask0_2988_17891" style="mask-type:alpha" maskUnits="userSpaceOnUse" x="0" y="0" width="401" height="95">
<rect width="401" height="95" fill="#D9D9D9"/>
</mask>
<g mask="url(#mask0_2988_17891)">
<path d="M140.787 18.0345L153.567 17.7458L153.968 18.4235L152.356 22.3855L158.696 22.4817L166.873 2.37498L167.823 1.69727H179.424L179.825 2.37498L176.168 11.3657C174.596 15.2314 173.06 19.0009 171.472 22.6742H173.987L188.507 22.3855L188.908 23.0632C179.986 44.5213 172.122 63.8541 166.223 75.7441C159.951 88.3119 155.508 93.529 140.815 93.529C139.171 93.529 138.826 92.9476 138.758 91.6924L138.361 81.7353C134.447 85.8938 129.936 89.8558 124.686 93.7215C124.005 94.2067 123.64 94.3992 123.251 94.3992C122.862 94.3992 122.597 94.1105 122.308 93.6253L117.905 86.8602C104.592 88.6968 92.9462 89.7595 76.3483 91.1149L75.5583 90.9224L75.4941 80.3879L76.4445 79.7101C83.8713 79.5177 90.8529 79.2249 97.5819 78.84L99.3103 74.5852H93.9928L81.2126 74.8739L80.8116 74.1962L84.2723 65.6908L85.2267 65.013L97.7704 65.3018H103.088L104.463 61.9172H103.012L88.4909 62.206L88.0899 61.5283L92.9823 50.2197L97.3854 39.3924L100.557 30.8869L101.508 30.2092L115.792 30.4979H117.244L118.543 27.3059H111.292L98.9934 27.5946L98.5924 26.9169L102.053 18.4115L103.004 17.7337L115.066 18.0225H122.316L123.616 14.8344C119.148 15.1232 114.757 15.2194 110.274 15.3196C109.404 15.3196 109.079 14.9347 108.91 14.1607L107.768 6.04022C124.297 6.04022 136.949 4.8813 148.891 2.85218L149.778 3.04466C151.911 5.17002 153.595 7.68438 155.412 10.5837L154.923 11.5501C148.498 12.6128 142.383 13.3868 136.344 13.9682L134.692 18.0265H140.783L140.787 18.0345ZM104.648 49.8388L102.996 53.897H107.924L109.576 49.8388H104.648ZM114.18 38.5302H109.251L107.639 42.4922H112.568L114.18 38.5302ZM129.623 30.506H131.363L145.884 30.2173L146.285 30.895L142.339 39.8856L138.329 49.7465L133.821 61.5403L132.871 62.218L118.587 61.9293H116.846L115.471 65.3138H119.144L131.925 65.0251L132.326 65.7028L128.865 74.2083L127.914 74.886L115.367 74.5972H111.694L110.318 77.9818C115.928 77.4966 121.538 77.0153 127.421 76.3376L125.913 79.3332C133.557 72.6644 138.461 65.1213 143.414 56.0384C146.469 50.4322 149.545 44.0521 153.908 33.8063L147.68 33.9026L147.279 33.2248L149.561 27.6187L137.013 27.33H130.922L129.623 30.522V30.506ZM119.914 53.897H124.939L126.591 49.8388H121.566L119.914 53.897ZM129.583 42.4922L131.195 38.5302H126.17L124.558 42.4922H129.583ZM166.937 33.5978C162.911 42.781 159.165 50.8052 155.484 57.474C150.435 66.561 145.551 73.8113 139.688 80.3838C141.97 80.4801 144.232 80.3839 146.726 80.1914C149.878 79.8064 151.763 78.7397 155.155 71.5897C159.883 61.6325 166.367 46.1655 171.476 33.6018H166.933L166.937 33.5978Z" fill="#003B68"/>
<path d="M177.661 85.8934C189.723 69.075 200.534 54.3819 211.478 39.5926C206.754 40.2703 201.26 40.948 196.191 41.5254L195.654 40.944L198.285 29.2464L199.139 28.5687C207.011 27.9873 214.518 27.1171 221.584 26.1506C226.616 19.4818 231.633 12.6165 237.175 5.17371L238.338 4.68848L250.091 7.87653L249.951 8.93921C245.68 14.4491 241.758 19.574 238.189 24.31C240.162 24.2137 242.039 24.1175 243.876 24.1175C251.9 24.1175 257.434 29.0459 251.595 43.1616C246.31 55.9218 239.376 68.682 233.702 76.221C225.778 87.1446 218.456 89.4624 213.331 89.4624C209.754 89.4624 205.928 88.881 202.146 87.722C201.549 87.5295 201.336 87.3371 201.79 85.9816L206.213 72.255C208.835 73.4139 212.693 74.3803 215.015 74.3803C218.107 74.3803 219.699 73.7989 222.995 69.2554C226.548 64.327 233.317 52.437 236.738 44.0278C239.096 38.2291 238.891 37.0662 234.64 37.0662C232.9 37.0662 230.598 37.2587 228.104 37.4512C214.157 55.8175 203.229 70.7993 190.285 89.5547L189.102 89.8434L177.641 86.6513L177.665 85.8774L177.661 85.8934ZM258.906 27.7988L271.786 21.3224H272.753C277.312 30.3131 279.213 40.8477 278.928 51.7713L278.15 52.7377L263.237 59.6993L262.447 59.5068C263.197 48.3908 262.326 36.982 258.324 28.7692L258.91 27.8028L258.906 27.7988Z" fill="#003B68"/>
<path d="M320.524 15.813L321.671 15.1353H334.142L334.64 15.813L327.682 32.9242C335.193 31.5728 342.896 30.2174 350.327 29.0584C353.531 21.4232 356.675 13.6876 359.133 7.40379L360.084 6.72607H373.036L373.437 7.40379C371.039 13.2987 368.285 20.0678 365.437 26.8328C370.915 25.9626 376.602 25.2849 382.099 24.6112L382.733 25.1927L379.481 36.9864L378.394 37.7604C372.03 38.4381 365.758 39.1118 359.935 39.8858C353.162 55.3528 350.255 58.9298 347.147 61.3439C343.434 64.536 338.975 66.4688 333.753 66.4688C331.047 66.4688 327.879 66.1801 325.388 65.4062C324.442 65.1174 324.269 64.8247 324.49 64.0547L327.297 52.1647C331.255 53.1312 333.553 53.4199 335.875 53.4199C337.615 53.4199 338.682 52.9347 339.52 52.0645C340.53 51.0018 342.155 48.1987 344.865 42.0111C337.471 43.0738 329.827 44.5255 322.316 45.8769L314.372 65.4022C311.894 71.4935 312.68 72.6524 323.892 72.6524C335.105 72.6524 345.01 71.5898 355.328 70.2343L355.825 70.9121L351.306 84.1535L350.275 85.0237C341.144 86.0864 332.883 86.6678 318.671 86.6678C297.983 86.6678 293.841 81.6431 299.11 68.6905L307.014 49.2614C301.572 50.5166 295.898 51.872 289.855 53.4159L288.908 53.1272L290.532 41.5259L291.274 40.6557C298.516 39.0115 305.526 37.4676 312.303 36.016L320.52 15.813H320.524Z" fill="#003B68"/>
<path d="M399.876 79.9986C396.728 87.7301 388.339 93.629 380.604 93.629C372.868 93.629 369.275 87.7341 372.419 79.9986C375.563 72.267 384.052 66.3682 391.692 66.3682C399.331 66.3682 403.02 72.263 399.876 79.9986ZM378.125 79.9986C376.277 84.542 378.342 88.0228 382.885 88.0228C387.429 88.0228 392.325 84.542 394.174 79.9986C396.023 75.4551 394.054 71.9743 389.414 71.9743C384.774 71.9743 379.974 75.4551 378.125 79.9986Z" fill="#003B68"/>
</g>
</svg>
