<svg width="401" height="95" viewBox="0 0 401 95" fill="none" xmlns="http://www.w3.org/2000/svg">
<mask id="mask0_2988_17890" style="mask-type:alpha" maskUnits="userSpaceOnUse" x="0" y="0" width="401" height="95">
<rect width="401" height="95" fill="#D9D9D9"/>
</mask>
<g mask="url(#mask0_2988_17890)">
<path d="M27.8182 66.6377L27.8102 67.6041C23.2026 74.1767 16.9668 81.427 10.679 87.6146L9.59622 87.9033L0 82.9749L0.160408 82.1047C5.6262 76.9798 12.8163 69.0558 16.7984 63.5459L17.8651 63.0606L27.8182 66.6377ZM36.4039 23.4286L25.3239 23.8136L24.8668 23.0396L28.8007 13.3752L29.8874 12.6013L40.6947 12.89H45.3344L49.8578 1.77395L51.0408 1H61.3829L61.9965 1.8702L57.5131 12.89H57.7056L68.8457 12.6013L69.3631 13.4715L65.4692 23.0396L64.3825 23.8136L53.4228 23.4286H53.2303L50.2829 30.6789L55.4239 27.7796H56.4866C58.4234 29.9049 60.3283 34.2559 61.4671 37.6405L60.9779 38.6069L51.6223 44.0206H50.4634C49.8618 41.7027 48.8513 39.1884 47.8247 36.9628L38.8541 59.9688H25.6086L34.4068 39.7658C30.104 44.4055 25.5525 48.4638 21.2175 51.7521C20.227 52.526 19.4892 52.911 19.004 52.911C18.5187 52.911 18.2501 52.6223 17.9653 52.1371L13.855 45.372C22.7294 39.4771 31.7762 31.2604 38.5373 23.4286H36.4119H36.4039ZM40.5503 76.2058C39.6441 78.4314 39.7042 78.5277 45.6953 78.5277C54.9747 78.5277 57.469 78.3352 60.0315 76.7873C62.3213 75.4318 63.5364 73.4027 65.5895 69.537L75.4745 74.4654C76.3808 74.8504 76.457 75.1431 75.7913 76.302C73.5216 80.4605 70.6904 84.3263 67.0813 86.5479C62.6942 89.2547 58.4515 90.4137 39.4075 90.4137C23.4552 90.4137 21.2817 88.8657 23.9966 82.1969L27.2568 74.6579L31.6599 63.8306L32.6103 63.1529H45.0818L45.5389 63.9268L40.5463 76.2018L40.5503 76.2058ZM116.907 3.99957L117.308 4.67728L111.947 17.1488L100.778 44.602L95.4449 58.4249L94.4945 59.1026L81.2731 58.8139H66.965L61.1263 58.9102C63.003 61.4245 64.5309 64.3238 65.5334 67.3194L64.8918 68.1896L52.4564 74.7622L51.7025 74.4734C50.9406 69.93 48.9756 65.968 47.0427 62.8722L47.5881 62.002L54.2409 58.7177L54.1647 58.4289L60.0756 44.606L71.2438 17.1528L76.0279 4.68129L76.882 4.00358L89.137 4.29231H103.541L116.903 4.00358L116.907 3.99957ZM71.0152 48.8528H85.997L88.0823 43.7278H73.1005L71.0152 48.8528ZM85.8767 61.0315L86.8993 61.1277C90.3159 65.0897 93.6363 71.1811 95.2243 76.7873L94.5827 77.6575L81.1368 84.8115L80.2104 84.7153C78.9954 78.4314 76.7417 71.8588 73.7341 67.6041L74.3196 66.6377L85.8807 61.0315H85.8767ZM79.0756 29.0348L77.0705 33.9632H92.0523L94.0574 29.0348H79.0756ZM99.9964 14.4379H85.0146L83.0496 19.2701H98.0314L99.9964 14.4379Z" fill="#003B68"/>
<path d="M135.475 13.9565L148.909 14.4418L149.31 15.1195C144.077 25.8506 139.894 35.4187 137.612 41.0249C134.152 49.5303 132.704 55.2327 132.05 60.1652C131.581 63.9347 131.697 66.7377 133.823 66.7377C136.433 66.7377 141.843 61.5166 147.686 52.6261L152.398 64.8049C152.719 65.6751 152.522 66.1603 151.704 67.223C143.748 77.2763 134.517 84.5267 126.685 84.5267C120.401 84.5267 116.7 80.0794 116.018 72.2517C115.497 66.1603 117.293 55.337 122.639 42.1878C125.823 34.356 129.793 25.0766 134.561 14.542L135.475 13.9606V13.9565ZM174.453 30.775L186.76 23.3322L187.903 23.1397C195.743 30.4863 200.483 41.4098 200.82 54.3625L200.174 55.2327L184.791 62.868L183.941 62.5793C184.146 49.2376 181.086 38.703 173.904 31.6452L174.453 30.775Z" fill="#003B68"/>
<path d="M211.82 54.1661C226.224 45.3679 236.891 37.9251 245.918 29.5159C241.122 29.9008 236.249 30.0011 231.706 30.0011L231.361 29.4196L235.812 17.5296L236.726 16.9481C243.977 16.9481 251.207 16.7557 258.558 16.2704C261.91 12.3084 265.09 8.0537 268.37 3.31775L269.341 2.83252L281.796 4.7654L282.101 5.44311C279.563 8.82765 277.225 11.727 275.023 14.53C280.172 13.7561 285.357 12.8859 290.663 11.727L291.336 12.2122L287.663 23.617L286.729 24.4872C279.081 25.9388 270.644 27.194 262.227 28.1604C259.737 30.4823 256.392 33.4779 253.513 35.7957C256.765 34.9255 259.243 34.5405 263.113 34.5405C269.108 34.5405 271.923 38.3101 271.133 43.82C278.167 41.4981 286.015 39.084 294.576 36.5697L295.387 36.9546L296.545 48.8446L295.707 49.7148C284.92 52.2292 275.585 54.7395 267.372 57.3501C266.032 61.1196 264.2 65.8556 262.411 70.4953L261.497 71.0768L248.54 71.562L248.003 70.9805C249.142 68.1774 250.325 65.2781 251.227 63.0525C244.189 65.8556 239.802 68.5624 238.467 71.8507C237.131 75.139 240.644 76.0052 249.206 76.1054C256.224 76.2017 266.245 75.3315 275.264 74.0763L275.994 74.6578L271.635 87.5142L270.74 88.2882C261.24 89.0621 252.923 89.5433 241.615 89.5433C222.09 89.5433 220.305 81.3266 223.69 73.0136C227.463 63.7342 237.93 57.2579 249.001 52.1329C251.135 51.1665 253.461 50.2001 255.979 49.2336C256.48 46.8155 255.542 45.5604 252.639 45.5604C248.773 45.5604 244.61 46.5268 240.243 48.9449C234.733 52.0367 225.643 58.2243 217.053 64.6044L216.046 64.7007L211.395 55.2287L211.828 54.1661H211.82Z" fill="#003B68"/>
<path d="M313.989 63.4458C319.502 68.667 323.464 74.3694 326.348 82.4899L326.035 83.2638L312.421 92.2545H311.55C308.864 83.6528 304.561 76.4025 300.105 72.1478L300.458 71.2776L312.982 63.5461L313.989 63.4498V63.4458Z" fill="#003B68"/>
</g>
</svg>
