<svg width="319" height="46" viewBox="0 0 319 46" fill="none" xmlns="http://www.w3.org/2000/svg">
<path d="M13.2116 31.0434V31.5002C11.0339 34.6102 8.08066 38.04 5.10264 40.9637L4.58565 41.1007L0 38.7674L0.0743619 38.3562C2.6664 35.9315 6.06934 32.1855 7.95318 29.578L8.45955 29.3496L13.2116 31.0399V31.0434ZM17.1847 10.6055L11.905 10.7882L11.6854 10.4228L13.5339 5.85095L14.0509 5.48548L19.2031 5.62253H21.4162L23.5408 0.365465L24.1039 0H29.033L29.3269 0.411148L27.22 5.62253H27.312L32.6201 5.48548L32.8679 5.89663L31.0372 10.4228L30.5202 10.7882L25.2972 10.6055H25.2051L23.8206 14.0352L26.2639 12.6648H26.7703C27.698 13.6698 28.6187 15.729 29.1711 17.3279L28.9409 17.7848L24.4969 20.3465H23.9445C23.6506 19.2502 23.1619 18.0589 22.6662 17.0082L18.4524 27.8913H12.1387L16.2746 18.3365C14.235 20.5328 12.0785 22.4515 10.0211 24.0047C9.55019 24.3702 9.19962 24.5529 8.96946 24.5529C8.73929 24.5529 8.61181 24.4159 8.47371 24.1874L6.49427 20.9861C10.7081 18.1959 14.9963 14.3093 18.1974 10.609H17.1847V10.6055ZM19.3058 35.5696C18.8808 36.6203 18.9092 36.6659 21.7668 36.6659C26.1895 36.6659 27.3793 36.5746 28.5974 35.8437C29.6845 35.2041 30.2582 34.2447 31.2284 32.4139L35.9522 34.7473C36.3842 34.93 36.4231 35.067 36.108 35.6152C35.0351 37.5796 33.7001 39.4104 31.9827 40.4612C29.9006 41.7403 27.8822 42.2885 18.8029 42.2885C11.2003 42.2885 10.1592 41.5576 11.434 38.4019L12.9673 34.8351L15.0353 29.7151L15.4885 29.3953H21.4339L21.6535 29.7608L19.3058 35.566V35.5696ZM55.5023 1.41618L55.697 1.73596L53.1758 7.63259L47.928 20.6171L45.4245 27.1568L44.9712 27.4766L38.6682 27.3396H31.8481L29.0649 27.3853C29.9678 28.573 30.7008 29.947 31.1895 31.3632L30.885 31.7743L24.975 34.8843L24.6173 34.7473C24.242 32.6002 23.293 30.7236 22.3652 29.2618L22.6237 28.8506L25.7859 27.2974L25.7505 27.1604L28.5302 20.6206L33.778 7.6361L36.023 1.73947L36.4302 1.41969L42.2729 1.55674H49.139L55.5058 1.41969L55.5023 1.41618ZM33.7532 22.6307H40.8955L41.8764 20.206H34.7341L33.7532 22.6307ZM40.8707 28.3903L41.3594 28.436C42.9989 30.309 44.5994 33.1905 45.3678 35.8437L45.0633 36.2548L38.6753 39.6389L38.2326 39.5932C37.6377 36.6203 36.5435 33.5138 35.0988 31.5002L35.375 31.0434L40.8707 28.3903ZM37.5421 13.2551L36.6002 15.5885H43.7425L44.6844 13.2551H37.5421ZM47.4747 6.34995H40.3325L39.4082 8.63762H46.5505L47.4747 6.34995Z" fill="#183B65"/>
<path d="M63.513 5.84473L69.9402 6.07533L70.1357 6.39818C67.6615 11.5212 65.685 16.0907 64.6115 18.7693C62.9798 22.8315 62.3008 25.5562 62.0022 27.9084C61.7889 29.7071 61.8493 31.0482 62.8696 31.0482C64.1173 31.0482 66.691 28.5541 69.4638 24.3074L71.7532 30.1222C71.9096 30.5373 71.8172 30.7679 71.4297 31.2752C67.6509 36.0754 63.2535 39.538 59.5067 39.538C56.4993 39.538 54.7183 37.4164 54.3699 33.6771C54.1033 30.7679 54.9316 25.5988 57.4555 19.3227C58.9592 15.5834 60.8291 11.1522 63.0829 6.12145L63.5166 5.84473H63.513ZM82.208 13.8769L88.0771 10.322L88.6245 10.2298C92.3962 13.7385 94.6926 18.9538 94.8917 25.1411L94.586 25.5562L87.2452 29.2033L86.84 29.0649C86.9004 22.6967 85.4074 17.6624 81.952 14.292L82.2115 13.8769H82.208Z" fill="#183B65"/>
<path d="M99.23 25.1136C106.071 20.9271 111.135 17.3841 115.412 13.3814C113.129 13.5653 110.806 13.6113 108.639 13.6113L108.472 13.3355L110.561 7.678L110.993 7.4022C114.449 7.4022 117.895 7.31027 121.397 7.08043C122.983 5.19579 124.488 3.16971 126.039 0.917335L126.499 0.6875L132.441 1.60684L132.59 1.92861C131.39 3.53745 130.285 4.91999 129.24 6.25303C131.691 5.8853 134.162 5.47159 136.687 4.91999L137.009 5.14983L135.288 10.5775L134.846 10.9912C131.205 11.6807 127.186 12.2782 123.178 12.7379C121.999 13.8411 120.412 15.2696 119.046 16.3728C120.593 15.9591 121.776 15.7753 123.617 15.7753C126.475 15.7753 127.827 17.5715 127.463 20.1916C130.809 19.0884 134.541 17.9357 138.617 16.7406L139.003 16.9244L139.587 22.5819L139.19 22.9956C134.056 24.1907 129.616 25.3894 125.706 26.6305C125.079 28.4232 124.219 30.6791 123.376 32.8855L122.944 33.1613L116.769 33.3912L116.51 33.1154C117.045 31.7823 117.601 30.3998 118.026 29.3426C114.679 30.6756 112.597 31.9662 111.967 33.5291C111.34 35.092 113.015 35.5057 117.098 35.5516C120.444 35.5976 125.218 35.1839 129.509 34.5863L129.86 34.8621L127.817 40.9793L127.392 41.347C122.866 41.7147 118.904 41.9446 113.515 41.9446C104.209 41.9446 103.338 38.0338 104.924 34.0771C106.698 29.6608 111.666 26.5775 116.932 24.1412C117.944 23.6816 119.053 23.2219 120.25 22.7622C120.48 21.613 120.03 21.0155 118.649 21.0155C116.808 21.0155 114.825 21.4751 112.75 22.6243C110.133 24.0953 105.816 27.0407 101.741 30.078L101.263 30.124L99.0176 25.6157L99.2194 25.1101L99.23 25.1136Z" fill="#183B65"/>
<path d="M147.307 29.5674C149.987 32.061 151.921 34.7817 153.34 38.6588L153.189 39.0277L146.631 43.3197H146.211C144.888 39.2121 142.786 35.7501 140.619 33.7211L140.788 33.3061L146.821 29.6135L147.307 29.5674Z" fill="#183B65"/>
<path d="M192.489 7.99846L198.783 7.8566L198.981 8.1876L198.198 10.1263L201.323 10.1736L205.293 0.330997L205.761 0H211.473L211.674 0.330997L209.9 4.73215C209.135 6.62355 208.392 8.47131 207.616 10.2681H208.853L216.003 10.1263L216.201 10.4573C211.868 20.9618 208.048 30.4298 205.176 36.2495C202.124 42.4002 199.95 44.9572 192.712 44.9572C191.904 44.9572 191.732 44.6735 191.695 44.0588L191.472 39.1848C189.554 41.218 187.344 43.1604 184.772 45.0518C184.439 45.2882 184.256 45.3828 184.066 45.3828C183.875 45.3828 183.744 45.2409 183.601 45.0045L181.413 41.6909C174.863 42.5893 169.129 43.1094 160.958 43.7751L160.566 43.6805L160.504 38.5228L160.972 38.1918C164.628 38.0972 168.068 37.9554 171.379 37.7662L172.221 35.6857H169.601L163.307 35.8275L163.109 35.4966L164.789 31.3318L165.257 31.0008L171.438 31.1427H174.058L174.727 29.4877H174.014L166.864 29.6296L166.662 29.2986L169.041 23.7626L171.178 18.463L172.715 14.2983L173.183 13.9673L180.22 14.1091H180.933L181.563 12.5487H177.991L171.935 12.6906L171.734 12.3596L173.414 8.19487L173.882 7.86388L179.825 8.00573H183.396L184.025 6.44532C181.826 6.58718 179.664 6.63446 177.453 6.68175C177.025 6.68175 176.864 6.4926 176.776 6.11432L176.191 2.13874C184.333 2.13874 190.561 1.57132 196.437 0.578337L196.877 0.672905C197.93 1.71318 198.768 2.94622 199.672 4.36478L199.434 4.83763C196.273 5.35776 193.261 5.73604 190.294 6.01976L189.492 8.00573H192.493L192.489 7.99846ZM174.782 23.5698L173.981 25.5558H176.411L177.212 23.5698H174.782ZM179.444 18.0338H177.014L176.231 19.9761H178.657L179.44 18.0338H179.444ZM187.026 14.1055H187.882L195.032 13.9636L195.234 14.2946L193.316 18.6958L191.369 23.5225L189.181 29.2949L188.713 29.6259L181.676 29.4841H180.82L180.15 31.139H181.958L188.252 30.9972L188.449 31.3282L186.77 35.4929L186.301 35.8239L180.121 35.682H178.313L177.644 37.337C180.406 37.1006 183.165 36.8642 186.064 36.5332L185.328 37.999C189.075 34.7327 191.468 31.0408 193.883 26.5924C195.373 23.8462 196.869 20.7254 198.988 15.7059L195.922 15.7532L195.724 15.4222L196.833 12.676L190.652 12.5342H187.652L187.022 14.0946L187.026 14.1055ZM182.309 25.5594H184.787L185.588 23.5734H183.111L182.309 25.5594ZM187.037 19.9761L187.82 18.0338H185.343L184.56 19.9761H187.037ZM205.41 15.6223C203.452 20.118 201.63 24.0463 199.837 27.3126C197.374 31.761 194.992 35.311 192.123 38.5301C193.247 38.5774 194.363 38.5301 195.589 38.4355C197.14 38.2464 198.066 37.7262 199.716 34.2235C202.018 29.3495 205.165 21.7766 207.649 15.6259H205.41V15.6223Z" fill="#183B65"/>
<path d="M210.023 41.369C215.964 33.0833 221.286 25.8443 226.678 18.5613C224.336 18.8943 221.611 19.2274 219.096 19.5128L218.826 19.2274L220.099 13.4669L220.523 13.1339C224.429 12.8484 228.153 12.4202 231.657 11.9444C234.136 8.65795 236.607 5.27998 239.336 1.61288L239.911 1.375L245.753 2.94505L245.687 3.46839C243.581 6.18394 241.652 8.70553 239.893 11.0405C240.874 10.9929 241.803 10.9453 242.714 10.9453C246.697 10.9453 249.46 13.3754 246.601 20.3253C244.012 26.6128 240.608 32.8966 237.813 36.6113C233.911 41.9912 230.282 43.133 227.737 43.133C225.963 43.133 224.063 42.8476 222.182 42.2766C221.884 42.1815 221.78 42.0863 222.002 41.4203L224.159 34.657C225.465 35.2279 227.383 35.7037 228.533 35.7037C230.068 35.7037 230.857 35.4182 232.48 33.1784C234.228 30.7483 237.554 24.8927 239.229 20.7498C240.383 17.8916 240.28 17.3206 238.167 17.3206C237.304 17.3206 236.16 17.4158 234.921 17.5109C228.05 26.5579 222.669 33.9397 216.296 43.1769L215.71 43.3197L210.012 41.7496L210.023 41.369ZM250.19 12.7496L256.567 9.55826H257.046C259.336 13.9866 260.31 19.1761 260.199 24.556L259.816 25.0318L252.432 28.461L252.038 28.3658C252.377 22.8908 251.916 17.2694 249.902 13.2217L250.19 12.7459V12.7496Z" fill="#183B65"/>
<path d="M279.888 6.89979L280.455 6.56544H286.637L286.884 6.89979L283.482 15.3615C287.2 14.6928 291.015 14.0241 294.693 13.4472C296.258 9.67014 297.797 5.8453 298.997 2.7406L299.469 2.40625H305.89L306.089 2.7406C304.918 5.65791 303.57 9.00143 302.178 12.3486C304.892 11.9187 307.709 11.5844 310.43 11.25L310.746 11.5366L309.17 17.3676L308.633 17.7497C305.481 18.084 302.377 18.4184 299.491 18.8005C296.177 26.4502 294.748 28.2175 293.213 29.4116C291.383 30.9878 289.178 31.9468 286.589 31.9468C285.249 31.9468 283.677 31.8035 282.44 31.4214C281.968 31.2781 281.884 31.1348 281.99 30.7527L283.349 24.874C285.312 25.3516 286.453 25.4949 287.602 25.4949C288.463 25.4949 288.99 25.2561 289.402 24.8262C289.899 24.3008 290.698 22.9156 292.024 19.855C288.364 20.3804 284.579 21.0969 280.86 21.7693L276.979 31.425C275.768 34.4379 276.162 35.0111 281.718 35.0111C287.274 35.0111 292.182 34.4857 297.289 33.817L297.539 34.1513L295.337 40.7024L294.829 41.1323C290.304 41.6577 286.214 41.9443 279.174 41.9443C268.923 41.9443 266.854 39.4568 269.428 33.0527L273.29 23.4447C270.599 24.0656 267.789 24.7343 264.8 25.4986L264.332 25.3553L265.105 19.6199L265.47 19.19C269.052 18.378 272.524 17.6137 275.879 16.8936L279.895 6.90347L279.888 6.89979Z" fill="#183B65"/>
<path d="M318.454 38.5079C316.909 42.4099 312.742 45.3822 308.885 45.3822C305.029 45.3822 303.221 42.4061 304.766 38.5079C306.311 34.6097 310.526 31.6299 314.335 31.6299C318.143 31.6299 319.999 34.606 318.454 38.5079ZM307.607 38.5079C306.7 40.8019 307.737 42.5561 310.004 42.5561C312.271 42.5561 314.701 40.8019 315.609 38.5079C316.517 36.214 315.527 34.4598 313.212 34.4598C310.897 34.4598 308.515 36.214 307.607 38.5079Z" fill="#183B65"/>
</svg>
